# Blender 4.5.3 LTS
# www.blender.org
mtllib cell_03.mtl
o Cylinder.001
v 0.000000 0.000000 -1.000000
v 0.000000 1.000000 -1.000000
v 0.866026 1.000000 -0.500000
v 0.866026 0.000000 -0.500000
v 0.866026 1.000000 0.500000
v 0.866026 0.000000 0.500000
v 0.000000 1.000000 1.000000
v 0.000000 0.000000 1.000000
v -0.866025 1.000000 0.500000
v -0.866025 0.000000 0.500000
v -0.866025 1.000000 -0.500000
v -0.866025 0.000000 -0.500000
v 0.000000 0.134739 -1.000000
v 0.866026 0.134739 -0.500000
v 0.866026 0.134739 0.500000
v 0.000000 0.134739 1.000000
v -0.866025 0.134739 0.500000
v -0.866025 0.134739 -0.500000
vn -0.5000 -0.0000 -0.8660
vn -1.0000 -0.0000 -0.0000
vn -0.5000 -0.0000 0.8660
vn 0.5000 -0.0000 0.8660
vn 1.0000 -0.0000 -0.0000
vn 0.5000 -0.0000 -0.8660
vt 0.950867 0.918763
vt 0.950867 0.928823
vt 0.978473 0.928823
vt 0.978473 0.918763
vt 0.923260 0.918763
vt 0.923260 0.928823
vt 0.895654 0.918763
vt 0.895654 0.928823
vt 0.868047 0.918763
vt 0.868047 0.928823
vt 0.840440 0.918763
vt 0.840440 0.928823
vt 0.812834 0.918763
vt 0.812834 0.928823
vt 0.812834 0.916026
vt 0.840440 0.916026
vt 0.868047 0.916026
vt 0.895654 0.916026
vt 0.923260 0.916026
vt 0.950867 0.916026
vt 0.978473 0.916026
s 0
usemtl Material.001
f 18/1/1 11/2/1 2/3/1 13/4/1
f 17/5/2 9/6/2 11/2/2 18/1/2
f 16/7/3 7/8/3 9/6/3 17/5/3
f 15/9/4 5/10/4 7/8/4 16/7/4
f 14/11/5 3/12/5 5/10/5 15/9/5
f 13/13/6 2/14/6 3/12/6 14/11/6
f 1/15/6 13/13/6 14/11/6 4/16/6
f 4/16/5 14/11/5 15/9/5 6/17/5
f 6/17/4 15/9/4 16/7/4 8/18/4
f 8/18/3 16/7/3 17/5/3 10/19/3
f 10/19/2 17/5/2 18/1/2 12/20/2
f 12/20/1 18/1/1 13/4/1 1/21/1
