# Blender 4.5.3 LTS
# www.blender.org
mtllib cell_02.mtl
o Cylinder.001
v 0.000000 0.000000 -1.000000
v 0.866025 0.000000 -0.500000
v 0.866025 0.000000 0.500000
v 0.000000 0.000000 1.000000
v -0.866025 0.000000 0.500000
v -0.866025 0.000000 -0.500000
v 0.000000 1.000000 -1.000000
v 0.866025 1.000000 -0.500000
v 0.866025 1.000000 0.500000
v 0.000000 1.000000 1.000000
v -0.866025 1.000000 0.500000
v -0.866025 1.000000 -0.500000
vn -0.5000 -0.0000 -0.8660
vn -1.0000 -0.0000 -0.0000
vn -0.5000 -0.0000 0.8660
vn 0.5000 -0.0000 0.8660
vn 1.0000 -0.0000 -0.0000
vn 0.5000 -0.0000 -0.8660
vt 0.840464 0.906382
vt 0.840464 0.915856
vt 0.812852 0.915856
vt 0.812852 0.906382
vt 0.868076 0.906382
vt 0.868076 0.915856
vt 0.895689 0.906382
vt 0.895689 0.915856
vt 0.923301 0.906382
vt 0.923301 0.915856
vt 0.950913 0.906382
vt 0.950913 0.915856
vt 0.978525 0.906382
vt 0.978525 0.915856
s 0
usemtl Material.001
f 6/1/1 12/2/1 7/3/1 1/4/1
f 5/5/2 11/6/2 12/2/2 6/1/2
f 4/7/3 10/8/3 11/6/3 5/5/3
f 3/9/4 9/10/4 10/8/4 4/7/4
f 2/11/5 8/12/5 9/10/5 3/9/5
f 1/13/6 7/14/6 8/12/6 2/11/6
